<svg xmlns="http://www.w3.org/2000/svg" version="1.1" xmlns:xlink="http://www.w3.org/1999/xlink" xmlns:svgjs="http://svgjs.dev/svgjs" viewBox="0 0 800 800"><defs><linearGradient x1="50%" y1="0%" x2="50%" y2="100%" id="ssscribble-grad"><stop stop-color="hsl(206, 75%, 49%)" stop-opacity="1" offset="0%"></stop><stop stop-color="hsl(331, 90%, 56%)" stop-opacity="1" offset="100%"></stop></linearGradient></defs><g fill="none" stroke-width="1.5" stroke="url(#ssscribble-grad)" stroke-linecap="round"><path d="M903.77 174.17C740.15 207.03 649.46 241.11 671.33 278.52 790.15 319.29 935.34 369.39 1034.88 433.04 1051.45 505.14 975.52 593.49 843.49 694.54 695.02 792.42 577.39 884.52 512.09 953.05 501.93 983.56 534.07 967.56 584.42 902.54 647.53 811.46 696.32 711.38 723.08 637.28 739.1 624.31 734.1 681.19 714.49 799.38 690.14 941.53 659.59 1058.94 626.73 1102.97 593.87 1055.98 560.25 936.81 522.63 794.68 480.27 678.19 425.49 623.98 352.52 639.61 268.82 715.66 165.91 816.4 52.15 906.85 -48.84 970.21 -128.15 984.08 -161.06 951.52 -138.83 881.2 -60.16 787.99 54.08 689.66 151.9 588.7 198.35 500.85 157.7 429.43 34.07 366.67 -129.81 317.35 -261.32 277.16 -295.87 240.34 -211.84 206.58 -48.22 173.72 99.94 140.86 153.89 110.45 94.6 85.29 -44.69 63.51 -183.94 53.05 -256.69 58.86 -237.25 73.33 -132.46 107.06 11.77 157.37 153.82 205.06 250.53 251.1 289.36 278.35 272.7 267.85 221.51 215.04 161.72 117.46 97.58 -7.19 54.81 -137.4 37.24 -237.55 33.5 -277.28 49.57 -241.78 77.15 -137.99 109.65 -8.54 144.5 103.97 177.36 150.98 210.22 106.98 239.54 -3.76 269.01 -133.23 303.4 -238.75 347.11 -276.94 407.8 -239.9 482.32 -141.72 579.21 -12.17 693.99 113.11 804.42 212.36 902.79 267.33 962.52 279.9 966.76 254.44 909.01 209.53 801.18 162.3 691.16 111.89 615.83 77.65 620.48 62.5 717.32 55.79 875.27 65.46 1027.26 86.66 1099.22 111.22 1051.94 141.31 903.77 174.17Q903.77 174.17 903.77 174.17" opacity="0.40"></path><path d="M869.77 236.85C716.28 267.37 621.45 307.02 622.05 356.11 713.64 406.96 846.05 469.88 959.79 544.69 1017.65 620.8 994.42 705.01 905.46 789.55 775.97 860.38 644.66 913.74 540.13 936.41 472.22 925.1 447.2 875.65 453.23 794.19 485.42 706.95 523.58 628.34 554.76 585.77 587.11 601.4 603.27 675.89 602.41 795.73 599.42 927.13 582.16 1030.93 551.65 1068.97 521.13 1028.16 478.81 922.56 424.25 790.88 367.57 672.24 295.9 600.01 210.68 586.9 126.61 631.7 38.2 711.62 -41.01 799.08 -94.07 879.74 -112.85 927.66 -84.94 937.17 -20.4 912.59 74.72 857.64 172.44 785.69 229.63 700.41 225.49 615.91 145.26 539.82 9.16 465.27 -140.61 402.7 -243.98 352.16 -256.36 303.44 -167.71 263.99 -14.22 233.47 125.85 202.96 187.85 182.82 151.28 173.99 35.22 166.99 -99.93 174.05 -196.04 195.71 -223 218.92 -168.4 253.17 -57.73 291.43 79.53 316.35 203.5 327.5 290.54 312.1 334.45 262.61 336.38 178.51 312.31 66.08 266.72 -53.14 222.16 -160.43 189.77 -227.6 159.95 -236.88 148.22 -182.02 153.23 -75.18 161.19 44.73 181.36 144.14 211.87 184.98 242.39 146.96 281.79 49.36 331.38 -70.26 383.92 -178.33 451.16 -235.47 533.86 -228.75 619.12 -163.82 713.94 -57.86 806.55 61.15 877.66 174.39 919.53 260.02 915.62 311.33 868.57 328.67 780.78 319.12 675.28 295.33 596.38 257.82 569.15 223.86 618.47 200.62 736.95 178.69 889.48 171.28 1017.31 177.96 1065.66 186.42 1009.85 206.35 869.77 236.85Q869.77 236.85 869.77 236.85" opacity="0.68"></path><path d="M835.77 369.39C692.77 397.56 595.96 437.69 578.12 488.42 642.16 539.08 754.92 599.54 870.38 666.34 956.22 728.74 979.84 790.19 940.7 842.13 851.07 876.5 735.43 888.48 620.65 870.94 518.19 829.76 445.39 763.22 402.45 682.06 385.5 610.95 386.9 560.23 395.22 549.09 412.93 588.92 424.95 675.34 425.65 792.75 427.26 911.99 414.76 1002.52 386.59 1034.97 358.42 999.93 315.92 907.62 261.2 787.82 207.38 671.16 144.12 586.53 77.6 548.96 20.46 562.38 -27.31 614.83 -53.77 686.85 -54.25 768.06 -21.88 833.88 43.66 873.83 121.51 889.77 203.76 876.19 264.06 840.45 273.88 787.27 224.99 724.93 118.51 661.99 -17.59 594.83 -146.37 534.21 -221.29 483.51 -214.32 432.8 -123.21 392.7 19.77 364.52 151.27 336.36 219.18 321.45 203.27 319.05 112.36 316.62 -10.45 326 -117.67 344.34 -180.44 358.48 -174.97 374.43 -109.69 384.21 -1.66 376.55 120.07 349.7 229.88 296.85 318.21 219.98 372.43 120.77 396.76 10.24 387.37 -129.96 329.1 -151.69 319.28 -11.62 317.22 97.3 329.83 183.92 358 218.98 386.16 186.55 428.55 101.74 483.74 -6.63 538.9 -113.17 605.7 -183.57 679.3 -202.76 745.99 -170.99 808.02 -95.02 853 5.42 872.08 115.9 858.29 215.84 806.88 293.94 733.99 348.4 645.64 376.86 566.94 385.9 530.99 377.37 550.78 362.3 634.2 348.71 762.07 330.73 900.91 321.51 1002.69 323.97 1029.47 326.36 967.27 341.23 835.77 369.39Q835.77 369.39 835.77 369.39" opacity="0.99"></path><path d="M801.77 515.03C669.62 540.85 572.91 575.95 539.8 618.18 577.41 659.06 665.88 704.1 772.07 748.67 900.22 801.08 857.74 820.04 721.85 765.67 616.34 710.88 521.4 644.26 445.25 577.64 384.98 530.93 344.71 510.37 318.73 527.6 303.69 585.92 293.23 678.55 281.17 789.89 271.72 895.98 255.3 973.69 229.49 1000.97 203.67 971.3 169.66 891.83 130.42 784.98 93.79 673.97 57.28 582.64 27.57 526.2 8.81 511.12 6.56 533.59 27.04 581.68 63.39 649.08 121.26 715.78 192.93 770.06 255.83 812.83 303.53 832.9 316.78 831.95 282.31 815.61 200.7 784.85 82.85 746.42 -42.25 701.08 -145.42 655.51 -193 614.32 -169.85 571.81 -78.37 536.58 53.77 510.76 212.05 477.34 132.73 455.36 -25.97 455.25 -111.09 448.95 -146.51 437.18 -128.71 413.74 -64.94 374.9 29.41 317.77 133.18 241.17 237.31 153.04 323.9 55.73 387.98 -38.54 432.96 -113.52 458.59 -159.16 472.39 -163.01 475.67 -125.51 477.66 -48.88 484.44 52.14 489.08 149.03 503.17 223.28 528.99 252.97 554.81 225.71 591.13 153.24 635.19 57.12 677.1 -44.26 722.09 -122.2 763.55 -161.6 794.49 -159.91 811.38 -116.2 806.2 -42.61 781.91 50.88 732.39 148.12 662.1 236.74 592.17 314.33 528.42 372.67 491.54 412.74 500.63 437.49 559.19 450.36 663.24 457.51 788.82 457.69 907.63 459.62 982.94 467.43 990.66 473.89 924.21 489.21 801.77 515.03Q801.77 515.03 801.77 515.03" opacity="0.97"></path><path d="M767.72 611.42C646.73 634.89 552.14 661.43 507.22 689.16 520.82 715.15 582.82 738.96 671.22 756.74 768.85 768.15 846.55 768.28 889.75 753.69 896.7 729.76 865.01 690.45 805.54 638.31 725.17 586.36 638.34 533.92 555.96 491.42 476.32 472.63 409.96 480.53 357.39 520.65 311.79 591 276.3 684.38 247.5 786.63 221.15 878.95 197.01 944.46 173.54 966.98 150.07 942.27 128.37 875.06 110.46 781.82 94.99 679.55 87.78 587 92.7 518.08 104.6 479.8 132.3 473.76 175.77 494.15 221.97 537.91 275.1 591.08 324.71 643.25 353.41 695.17 357.28 733.9 325.88 757.07 258.25 770.71 159.49 769.65 44.65 757.43 -60.94 738.82 -136.29 714.37 -158.96 687.95 -123.09 659.8 -33.26 633.05 87.72 609.57 200.66 586.1 274.05 567.02 291.51 550.91 250.77 533.06 169.5 514.82 73.41 492.75 -19.75 464.29 -82.81 426.69 -105.69 376.88 -89.56 317.53 -37.4 245.1 37.15 162.42 127.21 79.48 217.11 -1.5 297.43 -69.71 370.73 -114.53 428.58 -129.55 472.45 -108.47 508.16 -56.76 535.41 22.42 558.45 115.64 578.97 199.82 600.04 262.27 623.51 286.98 646.98 264.46 671.74 203.71 695.49 120.44 716.72 27.25 732.18 -52.76 737.15 -105.91 733.95 -128.83 714.77 -115.67 677.65 -72.44 633.5 -5.5 577.31 74.76 518.01 157.48 474.2 240.38 449.86 313.39 458.16 373.49 505.47 424.25 589.57 462.79 699.94 492.05 813.24 514.95 907.87 533.84 957.69 552.11 949.31 568.64 880.7 587.93 767.77 611.41Q767.72 611.42 767.72 611.42" opacity="0.13"></path><path d="M734.3 617.14C624.7 638.27 533.93 655.94 480.5 669.2 473.3 681.13 508.77 686.26 573.79 682.66 658.12 675.29 739.06 657.03 802.07 627.58 844.08 595.5 855.37 555.27 839.08 511.3 799.91 475.02 744.24 445.78 681.35 431.25 611.29 439.18 544.49 470.5 485.44 526.48 427.47 602.26 379.04 691.49 340.41 782.28 302.87 860.63 273.48 914.67 252.36 932.87 231.23 912.69 219.37 857.03 217.07 777.66 215.86 686.55 225.87 597.72 247.22 522.92 269.66 468.37 301.68 438.65 339.18 432.29 369.51 448.29 394.85 478.67 406.34 515.71 394.94 560.11 358.6 600.43 294.6 632.34 209.59 661.41 109.7 679.18 9.89 686.04 -70.61 689.06 -118.1 683.43 -119.05 671.14 -73.78 657.51 12.7 639.64 122.3 618.52 225.2 597.4 298.02 574.02 327.19 547.81 308.52 520.26 251.67 487.46 173.45 447.83 85.34 404.36 10.16 351.81 -39.98 290.19 -63.76 225.72 -55.51 155.07 -21.31 82.98 33.95 18.25 101.21 -37.17 171.15 -75.17 244.85 -90.82 311.85 -80.06 369.04 -41 423.38 18.31 467.86 95.11 503.28 178.07 537.22 249.29 564.57 300.67 585.69 320.87 606.82 302.68 620.72 252.94 626.62 182.74 631.04 100.1 624.99 22.89 607.26 -37.4 586.68 -77.9 554.46 -90.29 513.32 -76.23 475.94 -39.69 439.01 14.58 411.43 78.55 404.91 150.21 421.71 220.77 467.49 285.4 539.64 347.41 633.77 400.46 737.36 444.44 831.06 484.65 899.94 517.95 926.76 545.86 905.74 572.44 837.2 596.02 734.3 617.14Q734.3 617.14 734.3 617.14" opacity="0.62"></path><path d="M699.71 530.02C601.82 548.8 516.92 560.1 459.04 563.95 435.84 567.25 447.59 562.24 487.48 548.92 550.45 534.82 620.82 512.86 686.66 484.79 745.64 459.19 785.59 431.91 804.61 407.4 806.36 393.61 789.74 390.22 760.21 401.84 719.97 431.35 674.73 478.82 629.72 542.95 581.55 617.94 538.04 698.95 501.81 776.68 465.24 841.25 436.92 884.67 418.14 898.98 399.36 882.87 391.02 837.92 392.17 772.28 392.99 694.01 402.34 613.03 417.97 538.58 430.43 475.43 444.76 429.21 456.06 401.04 456.64 390.83 446.31 395.5 419.94 410.34 376.31 435.73 314.1 463.62 235.56 489.59 150.17 517.84 62.96 539.81 -13.76 553.82 -67.42 566.97 -89.85 571.78 -73.89 568.32 -23.26 564.28 57.82 552.87 155.71 534.09 248.4 515.32 319.11 490.06 357.1 458.68 357.72 426.73 325.16 387.76 269.33 342.07 196.54 295.52 123.77 242.62 62.11 185.43 13.05 130.52 -13.44 75.67 -17.79 25.67 -3.79 -13.77 26.92 -40.7 67.94 -50.04 118.22 -41.43 170.56 -12.05 220.08 37.33 271.49 98.02 316.59 168.31 353.42 239.33 390.18 297.73 418.46 338.87 437.24 354.98 456.02 340.67 464.42 301.05 463.07 243.73 461.66 173.25 450.72 102.92 431.85 41.69 404.17 -23.98 358.14 -28.5 366.87 22.73 395.82 71.85 444.58 126.09 513.18 180.63 594.39 237.63 684 290.52 770.56 337.16 840.15 383.02 883.41 422.2 890.06 454.31 859.33 485.87 792.44 511.23 699.76 530.01Q699.71 530.02 699.71 530.02" opacity="0.31"></path><path d="M665.76 387.11C455.52 420.92 566.22 368.78 705.57 343.74 753.97 371.34 748.08 445.51 711.71 566.5 658.27 703.51 606.49 820.96 573.63 864.97 540.77 817.96 529.94 698.76 526.43 561.65 505.85 442.05 460.46 370.04 368.99 344.52 243.8 358.31 94.49 385.98 -22.6 403.93 -53.77 426.81 26.14 424.98 189.76 392.11 337.93 359.25 395.42 298.47 353.39 218.65 238.35 143.75 123.02 64.8 54.61 7.94 29.7 -9.6 57.86 27.54 109.26 123.06 176.09 236.08 234.19 341.96 267.05 388.97 299.92 344.96 304.43 240.83 294.54 127.9 300.09 31 323.22 -8.3 391.2 7.15 502.67 62.06 652.86 139.76 791.98 214.06 858.1 293.54 813.93 354.25 665.76 387.11Q665.76 387.11 665.76 387.11" opacity="0.80"></path><path d="M631.72 249.76C488.74 277.93 390.49 286.69 363.63 283.91 407.12 289.11 487.27 298.95 564.77 329.06 638.54 387.05 676.9 478.12 682.45 593.57 676.35 707.76 654.23 798.53 626.06 830.98 597.9 795.94 566.35 703.41 523.64 588.63 469.28 473.7 386.96 383.96 276.27 327.54 106.84 294.98 37.32 285.85 223.72 253.49 355.24 225.32 425.46 180.04 421.25 127.65 351.43 83.14 258.53 47.61 181 39.04 117.03 58.54 92.64 118.4 98.98 212.67 118.04 306.81 147.52 387.92 175.68 422.98 203.85 390.54 228.04 311.2 257.79 217.65 300.25 122.83 368.59 61.64 469.47 40.56 583.92 47.36 706.7 81.48 797.18 125.09 822.05 176.69 763.27 221.59 631.77 249.75Q631.72 249.76 631.72 249.76" opacity="0.26"></path><path d="M597.72 176.7C476.74 200.17 381.47 219.7 332.34 239.91 332.45 266.54 368.64 304.94 417.68 361.31 479.71 432.03 526.84 522.08 550.09 620.29 570 708.5 567.86 774.46 544.39 796.98 520.92 772.27 478.34 704.64 417.75 615.53 353.82 517.18 270.06 427.66 177.27 357.82 97.46 302.65 36.38 265.38 19.06 239.56 50.99 220.18 136.74 201.11 257.72 177.64 408.01 141.34 416.45 92.68 330.12 117.4 264.81 156.47 220.17 221.09 201.25 302.23 187.61 374.13 193.96 432.25 217.43 456.98 240.89 434.47 279.26 378.03 333.57 307.02 393.16 226.02 474.43 160.85 570.51 120.9 700.06 94.41 743.27 140.62 597.77 176.69Q597.72 176.7 597.72 176.7" opacity="0.95"></path><path d="M563.98 199.21C466.08 217.98 380.96 244.33 322.24 278.58 292.24 316 288.86 366.07 301.7 428.17 330.36 494.2 358.19 568.94 374.89 642.68 393.59 704.57 395.56 748.61 376.79 762.93 358.01 746.83 320.25 701.31 269.01 638.42 219.77 564.11 162.63 489.27 109.36 423.47 71.91 361.88 55.38 312.4 71.61 275.47 116.57 241.76 194.08 215.73 291.98 196.95 384.63 178.18 455.86 168.43 496.4 169.59 505.58 173.98 490.4 194.16 463.72 231.14 424.04 272.32 389.97 327.25 370.56 387.8 350.55 436.93 348.46 474.83 367.24 490.93 386.01 476.61 423.89 440.18 476.44 392.05 528.39 332.08 591.76 277.25 656.06 235.83 724.89 187.97 688.44 175.71 563.98 199.21Q563.98 199.21 563.98 199.21" opacity="0.86"></path><path d="M529.72 307.77C386.74 335.94 285.71 409.79 245.15 509.95 245.78 605.21 251.49 696.53 223.32 728.98 195.15 693.94 138.44 600.92 100.9 505.07 104.54 404.96 182.74 331.46 325.72 303.3 457.25 275.13 531.88 297.62 548.94 360.82 525.89 419.75 508.67 489.94 536.84 524.98 565 492.53 633.23 424.05 693.19 365.7 713.04 302.45 661.25 279.6 529.72 307.77Q529.72 307.77 529.72 307.77" opacity="0.34"></path><path d="M495.77 455.77C313.13 493.33 211.97 637.83 174.42 694.97 136.86 634.49 177.13 488.55 359.77 450.99 522.51 413.44 587.42 498.49 624.98 558.97 662.53 501.83 658.51 418.22 495.77 455.77Q495.77 455.77 495.77 455.77" opacity="0.12"></path></g></svg>